<svg width="59" height="59" viewBox="0 0 59 59" fill="none" xmlns="http://www.w3.org/2000/svg">
<path d="M29.5739 0L31.7318 9.2396C32.9643 14.5166 33.5805 17.1551 34.9308 19.2927C36.1248 21.1828 37.7263 22.7822 39.618 23.9737C41.7573 25.3212 44.3966 25.934 49.6752 27.1595L58.8277 29.2844L49.6752 31.4093C44.3966 32.6349 41.7573 33.2476 39.618 34.5951C37.7263 35.7867 36.1248 37.386 34.9308 39.2762C33.5805 41.4137 32.9643 44.0522 31.7318 49.3292L29.5739 58.5688L27.416 49.3292C26.1835 44.0522 25.5673 41.4137 24.217 39.2762C23.023 37.386 21.4216 35.7867 19.5298 34.5951C17.3905 33.2476 14.7512 32.6349 9.4726 31.4093L0.320068 29.2844L9.47259 27.1595C14.7512 25.934 17.3905 25.3212 19.5298 23.9737C21.4216 22.7822 23.023 21.1828 24.217 19.2927C25.5673 17.1551 26.1835 14.5166 27.416 9.23961L29.5739 0Z" fill="#80A7FE"/>
</svg>
