<svg width="21" height="18" viewBox="0 0 21 18" fill="none" xmlns="http://www.w3.org/2000/svg">
<path d="M13 16.5C13 14.29 10.314 12.5 7 12.5C3.686 12.5 1 14.29 1 16.5M14 10.5H17H20M7 9.5C5.93913 9.5 4.92172 9.07857 4.17157 8.32843C3.42143 7.57828 3 6.56087 3 5.5C3 4.43913 3.42143 3.42172 4.17157 2.67157C4.92172 1.92143 5.93913 1.5 7 1.5C8.06087 1.5 9.07828 1.92143 9.82843 2.67157C10.5786 3.42172 11 4.43913 11 5.5C11 6.56087 10.5786 7.57828 9.82843 8.32843C9.07828 9.07857 8.06087 9.5 7 9.5Z" stroke="#E2190C" stroke-width="2" stroke-linecap="round" stroke-linejoin="round"/>
</svg>
