<svg width="20" height="24" viewBox="0 0 20 24" fill="none" xmlns="http://www.w3.org/2000/svg">
<path d="M3.66556 10.5709C3.56127 10.5709 3.46126 10.6123 3.38753 10.686C3.31379 10.7598 3.27236 10.8598 3.27236 10.9641V21.1871C3.27236 21.4041 3.44851 21.5803 3.66556 21.5803H17.0341C17.1384 21.5803 17.2384 21.5388 17.3121 21.4651C17.3859 21.3914 17.4273 21.2914 17.4273 21.1871V10.9641C17.4273 10.8598 17.3859 10.7598 17.3121 10.686C17.2384 10.6123 17.1384 10.5709 17.0341 10.5709H15.4613C15.1485 10.5709 14.8485 10.4466 14.6272 10.2254C14.406 10.0042 14.2818 9.70415 14.2818 9.3913C14.2818 9.07846 14.406 8.77843 14.6272 8.55722C14.8485 8.336 15.1485 8.21173 15.4613 8.21173H17.0341C18.5534 8.21173 19.7864 9.44478 19.7864 10.9641V21.1871C19.7864 21.917 19.4965 22.6171 18.9803 23.1333C18.4641 23.6494 17.7641 23.9394 17.0341 23.9394H3.66556C2.93559 23.9394 2.23552 23.6494 1.71935 23.1333C1.20319 22.6171 0.913208 21.917 0.913208 21.1871V10.9641C0.913208 9.44478 2.14626 8.21173 3.66556 8.21173H5.23832C5.55117 8.21173 5.8512 8.336 6.07241 8.55722C6.29363 8.77843 6.4179 9.07846 6.4179 9.3913C6.4179 9.70415 6.29363 10.0042 6.07241 10.2254C5.8512 10.4466 5.55117 10.5709 5.23832 10.5709H3.66556ZM10.0714 0.626257C10.108 0.589641 10.1514 0.560589 10.1991 0.540767C10.2469 0.520945 10.2981 0.510742 10.3498 0.510742C10.4015 0.510742 10.4528 0.520945 10.5005 0.540767C10.5483 0.560589 10.5917 0.589641 10.6282 0.626257L15.1829 5.181C15.2381 5.23599 15.2756 5.30611 15.2909 5.38248C15.3061 5.45884 15.2983 5.53801 15.2685 5.60994C15.2387 5.68188 15.1882 5.74334 15.1234 5.78653C15.0586 5.82973 14.9824 5.85271 14.9046 5.85257H11.5294V14.896C11.5294 15.2088 11.4051 15.5089 11.1839 15.7301C10.9627 15.9513 10.6627 16.0756 10.3498 16.0756C10.037 16.0756 9.73695 15.9513 9.51574 15.7301C9.29453 15.5089 9.17025 15.2088 9.17025 14.896V5.85257H5.79509C5.71722 5.85271 5.64106 5.82973 5.57627 5.78653C5.51148 5.74334 5.46098 5.68188 5.43116 5.60994C5.40134 5.53801 5.39355 5.45884 5.40878 5.38248C5.42401 5.30611 5.46157 5.23599 5.51671 5.181L10.0714 0.626257Z" fill="#464646"/>
</svg>
