<svg width="20" height="25" viewBox="0 0 20 25" fill="none" xmlns="http://www.w3.org/2000/svg">
<path d="M17.7911 2.18201V21.3227L12.0103 17.0265C11.5083 16.6536 10.8846 16.4505 10.2418 16.4505C9.59905 16.4505 8.97538 16.6536 8.47343 17.0265L2.69255 21.3209V2.18201H17.7911ZM18.7348 0.429199H1.74889C1.49862 0.429199 1.25859 0.521534 1.08162 0.685892C0.90465 0.85025 0.805229 1.07317 0.805229 1.3056V23.1456C0.805482 23.3105 0.855831 23.472 0.950488 23.6115C1.04515 23.7511 1.18027 23.863 1.34033 23.9343C1.5004 24.0057 1.67891 24.0338 1.85534 24.0152C2.03178 23.9965 2.19898 23.9321 2.33774 23.8292L9.653 18.3955C9.82022 18.2715 10.0279 18.2039 10.2418 18.2039C10.4558 18.2039 10.6635 18.2715 10.8307 18.3955L18.146 23.8292C18.2847 23.9321 18.4519 23.9965 18.6284 24.0152C18.8048 24.0338 18.9833 24.0057 19.1434 23.9343C19.3034 23.863 19.4386 23.7511 19.5332 23.6115C19.6279 23.472 19.6782 23.3105 19.6785 23.1456V1.3056C19.6785 1.07317 19.579 0.85025 19.4021 0.685892C19.2251 0.521534 18.9851 0.429199 18.7348 0.429199Z" fill="#464646"/>
</svg>
